<svg width="92" height="86" viewBox="0 0 92 86" fill="none" xmlns="http://www.w3.org/2000/svg">
<path d="M24.3967 65.4368C21.8006 57.0633 20.2165 50.9995 18.9778 41.2193C16.9135 24.9198 18.049 6.29034 29.6609 0.546453C42.0469 -1.78217 44.5942 3.19616 50.0977 18.0885L42.9758 16.0705C43.0657 17.4791 40.6175 5.98229 34.4604 6.60082C28.3033 7.21935 23.1384 29.9679 34.4604 59.8482L24.3967 65.4368Z" fill="url(#paint0_angular_20_23)"/>
<path d="M24.3967 65.4368C21.8006 57.0633 20.2165 50.9995 18.9778 41.2193C16.9135 24.9198 18.049 6.29034 29.6609 0.546453C42.0469 -1.78217 44.5942 3.19616 50.0977 18.0885L42.9758 16.0705C43.0657 17.4791 40.6175 5.98229 34.4604 6.60082C28.3033 7.21935 23.1384 29.9679 34.4604 59.8482L24.3967 65.4368Z" fill="black" fill-opacity="0.2"/>
<path d="M69.6325 49.3678C63.5205 55.6394 58.9537 59.9202 50.962 65.6634C37.6431 75.235 20.7585 83.092 10.1974 75.5808C2.26465 65.7628 5.42111 61.1486 15.87 49.2127L17.486 56.4542C18.6792 55.7051 9.75652 63.3315 13.227 68.4683C16.6975 73.6052 39.1121 67.3437 59.9439 43.1484L69.6325 49.3678Z" fill="url(#paint1_angular_20_23)"/>
<path d="M69.6325 49.3678C63.5205 55.6394 58.9537 59.9202 50.962 65.6634C37.6431 75.235 20.7585 83.092 10.1974 75.5808C2.26465 65.7628 5.42111 61.1486 15.87 49.2127L17.486 56.4542C18.6792 55.7051 9.75652 63.3315 13.227 68.4683C16.6975 73.6052 39.1121 67.3437 59.9439 43.1484L69.6325 49.3678Z" fill="black" fill-opacity="0.2"/>
<path d="M31.892 18.279C40.4544 20.0628 46.5116 21.6141 55.6428 25.2705C70.8607 31.3641 86.5591 41.3935 85.9383 54.3613C81.9633 66.3519 76.3858 66.1716 60.7276 63.7762L65.9413 58.5095C64.669 57.9052 75.884 61.3334 78.3302 55.6342C80.7763 49.9351 63.439 34.3749 31.8864 29.8139L31.892 18.279Z" fill="url(#paint2_angular_20_23)"/>
<path d="M31.892 18.279C40.4544 20.0628 46.5116 21.6141 55.6428 25.2705C70.8607 31.3641 86.5591 41.3935 85.9383 54.3613C81.9633 66.3519 76.3858 66.1716 60.7276 63.7762L65.9413 58.5095C64.669 57.9052 75.884 61.3334 78.3302 55.6342C80.7763 49.9351 63.439 34.3749 31.8864 29.8139L31.892 18.279Z" fill="black" fill-opacity="0.2"/>
<defs>
<radialGradient id="paint0_angular_20_23" cx="0" cy="0" r="1" gradientUnits="userSpaceOnUse" gradientTransform="translate(34.1507 46.0318) rotate(-177.792) scale(16.1138 16.3495)">
<stop offset="0.162204" stop-color="#F400D0"/>
<stop offset="0.251828" stop-color="#FF7464"/>
<stop offset="0.685887" stop-color="#133771" stop-opacity="0.95"/>
</radialGradient>
<radialGradient id="paint1_angular_20_23" cx="0" cy="0" r="1" gradientUnits="userSpaceOnUse" gradientTransform="translate(47.9693 49.9914) rotate(63.8704) scale(16.1485 16.3144)">
<stop offset="0.162204" stop-color="#F400D0"/>
<stop offset="0.251828" stop-color="#FF7464"/>
<stop offset="0.685887" stop-color="#133771" stop-opacity="0.95"/>
</radialGradient>
<radialGradient id="paint2_angular_20_23" cx="0" cy="0" r="1" gradientUnits="userSpaceOnUse" gradientTransform="translate(44.0876 36.2421) rotate(-58.8586) scale(16.1453 16.3176)">
<stop offset="0.162204" stop-color="#F400D0"/>
<stop offset="0.251828" stop-color="#FF7464"/>
<stop offset="0.685887" stop-color="#133771" stop-opacity="0.95"/>
</radialGradient>
</defs>
</svg>
