  <svg xmlns="http://www.w3.org/2000/svg" width="17" height="15" viewBox="0 0 17 15" fill="none">
                <path
                    d="M4.50807 11.4134C4.02836 9.95291 3.73564 8.89527 3.50676 7.18941C3.12531 4.34647 3.33513 1.09715 5.4808 0.0953116C7.76953 -0.310844 8.24023 0.55747 9.25718 3.15497L7.94118 2.80299C7.95779 3.04869 7.50541 1.04342 6.36768 1.15131C5.22996 1.25919 4.27556 5.22696 6.36768 10.4386L4.50807 11.4134Z"
                    fill="#9D0F88"
                />
                <path
                    d="M4.50807 11.4134C4.02836 9.95291 3.73564 8.89527 3.50676 7.18941C3.12531 4.34647 3.33513 1.09715 5.4808 0.0953116C7.76953 -0.310844 8.24023 0.55747 9.25718 3.15497L7.94118 2.80299C7.95779 3.04869 7.50541 1.04342 6.36768 1.15131C5.22996 1.25919 4.27556 5.22696 6.36768 10.4386L4.50807 11.4134Z"
                    fill="black"
                    fill-opacity="0.2"
                />
                <path
                    d="M12.8669 8.61067C11.7375 9.70455 10.8936 10.4512 9.41688 11.4529C6.95579 13.1224 3.83581 14.4928 1.88431 13.1827C0.418468 11.4703 1.00173 10.6655 2.9325 8.58361L3.23112 9.84667C3.45159 9.71601 1.80283 11.0462 2.44412 11.9422C3.0854 12.8381 7.22723 11.746 11.0766 7.52588L12.8669 8.61067Z"
                    fill="#92007D"
                />
                <path
                    d="M12.8669 8.61067C11.7375 9.70455 10.8936 10.4512 9.41688 11.4529C6.95579 13.1224 3.83581 14.4928 1.88431 13.1827C0.418468 11.4703 1.00173 10.6655 2.9325 8.58361L3.23112 9.84667C3.45159 9.71601 1.80283 11.0462 2.44412 11.9422C3.0854 12.8381 7.22723 11.746 11.0766 7.52588L12.8669 8.61067Z"
                    fill="black"
                    fill-opacity="0.2"
                />
                <path
                    d="M5.89309 3.18808C7.47527 3.49922 8.59453 3.76979 10.2818 4.40753C13.0938 5.47037 15.9946 7.21968 15.8799 9.48151C15.1454 11.5729 14.1148 11.5414 11.2214 11.1236L12.1848 10.205C11.9497 10.0996 14.022 10.6976 14.4741 9.70353C14.9261 8.7095 11.7224 5.9955 5.89206 5.19999L5.89309 3.18808Z"
                    fill="#840771"
                />
                <path
                    d="M5.89309 3.18808C7.47527 3.49922 8.59453 3.76979 10.2818 4.40753C13.0938 5.47037 15.9946 7.21968 15.8799 9.48151C15.1454 11.5729 14.1148 11.5414 11.2214 11.1236L12.1848 10.205C11.9497 10.0996 14.022 10.6976 14.4741 9.70353C14.9261 8.7095 11.7224 5.9955 5.89206 5.19999L5.89309 3.18808Z"
                    fill="black"
                    fill-opacity="0.2"
                />
            </svg>